<?xml version="1.0" standalone="no"?>
<!DOCTYPE svg PUBLIC "-//W3C//DTD SVG 20010904//EN"
 "http://www.w3.org/TR/2001/REC-SVG-20010904/DTD/svg10.dtd">
<svg version="1.0" xmlns="http://www.w3.org/2000/svg"
 width="800.000000pt" height="800.000000pt" viewBox="0 0 800.000000 800.000000"
 preserveAspectRatio="xMidYMid meet">
<metadata>
Created by potrace 1.11, written by Peter Selinger 2001-2013
</metadata>
<g transform="translate(0.000000,800.000000) scale(0.100000,-0.100000)"
fill="#000000" stroke="none">
<path d="M3642 4930 c-249 -65 -438 -259 -497 -507 -13 -55 -16 -100 -13 -185
8 -186 64 -312 198 -448 84 -84 154 -129 262 -168 66 -24 87 -27 213 -27 131
0 145 2 226 31 173 62 306 179 385 339 119 241 94 502 -69 722 -86 116 -246
217 -392 248 -96 20 -224 18 -313 -5z m-252 -143 c0 -2 -10 -12 -22 -23 l-23
-19 19 23 c18 21 26 27 26 19z m494 -357 c-5 -24 -3 -30 10 -30 32 0 40 -66
11 -90 -9 -7 -16 -6 -26 6 -10 12 -10 17 0 23 10 7 10 15 -3 39 -13 25 -14 36
-4 57 15 33 19 32 12 -5z m-51 -100 c-16 -41 -53 -57 -53 -24 0 13 3 14 14 5
18 -15 30 1 21 30 -5 14 -3 19 3 15 6 -3 13 -2 17 4 14 22 13 8 -2 -30z m127
5 c-15 -18 -3 -38 17 -31 9 4 13 1 11 -6 -5 -15 -58 -17 -58 -2 0 18 34 75 38
63 2 -5 -1 -16 -8 -24z m-230 -39 c-1 -20 -30 27 -30 48 0 18 3 16 15 -8 8
-15 15 -33 15 -40z"/>
</g>
</svg>
