<?xml version="1.0" standalone="no"?>
<!DOCTYPE svg PUBLIC "-//W3C//DTD SVG 20010904//EN"
 "http://www.w3.org/TR/2001/REC-SVG-20010904/DTD/svg10.dtd">
<svg version="1.0" xmlns="http://www.w3.org/2000/svg"
 width="260.000000pt" height="260.000000pt" viewBox="0 0 260.000000 260.000000"
 preserveAspectRatio="xMidYMid meet">
<metadata>
Created by potrace 1.11, written by Peter Selinger 2001-2013
</metadata>
<g transform="translate(0.000000,260.000000) scale(0.100000,-0.100000)"
fill="#000000" stroke="none">
<path d="M1253 2593 c31 -2 83 -2 115 0 31 2 5 3 -58 3 -63 0 -89 -1 -57 -3z"/>
<path d="M1083 2573 c9 -2 23 -2 30 0 6 3 -1 5 -18 5 -16 0 -22 -2 -12 -5z"/>
<path d="M1508 2573 c12 -2 30 -2 40 0 9 3 -1 5 -23 4 -22 0 -30 -2 -17 -4z"/>
<path d="M988 2553 c6 -2 18 -2 25 0 6 3 1 5 -13 5 -14 0 -19 -2 -12 -5z"/>
<path d="M1292 2443 l3 -118 55 -6 c104 -11 166 29 143 92 -9 22 -8 31 3 40 8
6 14 20 14 31 0 54 -47 78 -158 78 l-63 0 3 -117z m126 40 c2 -8 -5 -13 -17
-13 -21 0 -35 13 -24 24 10 10 36 3 41 -11z m-4 -82 c7 -11 -22 -23 -35 -15
-5 3 -7 10 -4 15 8 12 32 12 39 0z"/>
<path d="M1613 2553 c9 -2 23 -2 30 0 6 3 -1 5 -18 5 -16 0 -22 -2 -12 -5z"/>
<path d="M918 2533 c7 -3 16 -2 19 1 4 3 -2 6 -13 5 -11 0 -14 -3 -6 -6z"/>
<path d="M1678 2533 c6 -2 18 -2 25 0 6 3 1 5 -13 5 -14 0 -19 -2 -12 -5z"/>
<path d="M858 2513 c7 -3 16 -2 19 1 4 3 -2 6 -13 5 -11 0 -14 -3 -6 -6z"/>
<path d="M1738 2513 c6 -2 18 -2 25 0 6 3 1 5 -13 5 -14 0 -19 -2 -12 -5z"/>
<path d="M808 2493 c7 -3 16 -2 19 1 4 3 -2 6 -13 5 -11 0 -14 -3 -6 -6z"/>
<path d="M1798 2493 c7 -3 16 -2 19 1 4 3 -2 6 -13 5 -11 0 -14 -3 -6 -6z"/>
<path d="M1055 2478 c-73 -18 -93 -29 -104 -57 -15 -35 6 -98 42 -125 24 -17
31 -18 60 -8 18 7 44 12 58 12 46 0 49 9 35 92 -19 107 -16 104 -91 86z m12
-112 c-6 -17 -27 -18 -33 -2 -3 9 -3 24 1 34 6 16 7 16 21 -3 8 -10 13 -24 11
-29z"/>
<path d="M1545 2478 c-9 -30 -25 -121 -25 -147 0 -23 6 -30 25 -35 35 -9 41
-3 56 54 11 42 17 50 36 50 23 0 48 33 38 50 -3 6 -16 10 -29 10 -12 0 -26 4
-31 9 -18 16 -65 22 -70 9z"/>
<path d="M1835 2480 c3 -6 10 -10 15 -10 14 0 177 -96 223 -132 329 -255 500
-586 514 -993 12 -347 -94 -644 -326 -913 -43 -50 -192 -182 -205 -182 -3 0
-6 13 -6 30 0 21 -15 47 -53 92 -29 35 -125 149 -212 253 -87 105 -195 233
-240 285 -45 52 -84 100 -88 106 -5 8 14 12 59 13 37 1 70 4 75 7 5 3 25 33
45 67 29 49 34 65 25 79 -18 28 -13 45 24 94 19 25 35 52 35 60 0 8 2 14 5 14
2 0 44 -25 91 -56 48 -31 98 -56 111 -56 52 -1 53 6 53 258 0 229 0 233 -22
248 -12 9 -28 16 -34 16 -6 0 -52 -27 -102 -60 -51 -33 -94 -60 -97 -60 -3 0
-5 6 -5 14 0 8 -9 24 -19 37 l-19 24 43 46 c114 122 74 288 -87 368 -70 35
-99 35 -184 -4 -55 -25 -108 -79 -131 -133 l-14 -34 -30 42 c-52 71 -160 101
-243 66 -46 -19 -100 -78 -121 -132 -15 -39 -16 -52 -5 -88 6 -22 23 -56 37
-74 l25 -33 -20 -22 c-45 -50 -52 -79 -52 -227 0 -94 4 -148 13 -163 14 -26
68 -87 77 -87 3 0 4 17 2 37 -4 32 -2 36 9 26 9 -7 20 -8 29 -3 11 7 12 11 0
24 -17 21 -5 33 16 16 9 -8 14 -23 11 -37 -3 -19 0 -23 20 -23 22 0 24 -3 18
-28 -10 -42 -44 -72 -82 -72 -18 0 -33 -5 -33 -11 0 -16 57 -114 76 -130 9 -7
39 -12 75 -11 36 1 59 -2 59 -9 0 -6 -22 -36 -49 -67 -338 -393 -540 -639
-547 -666 -3 -13 -1 -33 5 -44 18 -34 13 -34 -32 -4 -167 117 -347 323 -420
485 -9 20 -24 52 -32 70 -25 57 -63 180 -81 262 -11 54 -17 130 -18 237 0 86
-4 152 -8 145 -12 -18 -10 -268 3 -329 6 -29 15 -78 21 -108 10 -52 39 -151
58 -195 44 -107 127 -258 149 -275 4 -3 18 -21 31 -40 121 -175 332 -335 565
-428 154 -61 175 -64 503 -60 295 4 297 4 377 32 276 97 520 278 674 501 64
93 132 228 173 345 l33 95 0 310 0 310 -33 95 c-68 196 -170 364 -303 501 -97
98 -123 121 -204 175 -109 73 -235 139 -220 114z m-204 -436 c15 -7 36 -26 47
-42 106 -148 -95 -322 -233 -201 -140 123 19 330 186 243z m-451 -59 c82 -42
78 -170 -6 -210 -64 -30 -137 -7 -169 54 -26 52 -20 89 24 132 32 33 45 39 80
39 23 0 55 -7 71 -15z m182 -205 c11 0 21 -19 45 -92 11 -36 -15 -17 -38 27
-21 39 -28 45 -55 45 l-31 0 20 41 20 41 13 -31 c7 -17 19 -31 26 -31z m111
-145 c-1 -25 3 -45 8 -45 5 0 9 5 9 11 0 5 4 8 10 4 5 -3 6 -13 3 -21 -3 -8 7
-40 22 -70 25 -49 27 -59 17 -92 -6 -20 -10 -37 -8 -39 2 -2 17 12 35 32 21
24 31 46 31 68 l1 32 20 -24 c21 -25 18 -53 -7 -82 -8 -8 -14 -23 -14 -32 0
-24 22 -32 36 -13 14 20 34 13 34 -12 0 -10 -12 -35 -26 -56 -19 -28 -25 -46
-20 -67 3 -15 2 -30 -2 -33 -5 -3 -53 -6 -107 -7 -108 -2 -129 8 -73 37 38 19
48 32 41 51 -3 7 0 13 6 13 6 0 11 7 11 17 0 14 2 14 20 -2 11 -10 20 -13 20
-7 0 6 -4 14 -10 17 -5 3 -10 18 -10 33 0 25 -1 25 -14 6 -12 -15 -19 -17 -32
-8 -23 13 -50 52 -59 82 -6 20 -4 22 19 16 32 -8 32 -3 1 46 -28 44 -31 83
-10 120 8 14 14 43 15 65 0 37 1 38 17 22 13 -12 17 -31 16 -62z m-393 -104
c0 -12 12 -26 28 -33 17 -9 26 -21 25 -33 -1 -11 2 -22 5 -25 11 -8 32 -74 32
-98 0 -27 16 -28 30 -2 11 21 40 28 40 10 0 -5 -4 -10 -8 -10 -5 0 -14 -11
-20 -25 -10 -22 -9 -25 8 -25 26 0 35 -18 17 -38 -8 -9 -17 -26 -19 -37 -2
-15 -15 -22 -56 -28 -30 -5 -56 -6 -59 -3 -3 3 9 23 26 45 l32 40 -28 13 c-23
11 -28 20 -28 48 0 19 -6 45 -13 58 -9 16 -10 27 -2 41 16 30 12 52 -10 58
-21 6 -35 36 -25 53 10 17 25 11 25 -9z m320 -41 c0 -10 -9 -34 -20 -52 -23
-40 -30 -99 -12 -105 7 -3 12 4 12 16 0 29 16 26 36 -5 17 -25 16 -28 -14 -90
l-32 -65 -57 3 c-61 3 -90 25 -65 50 10 10 14 10 21 -1 9 -14 41 -9 41 7 0 4
-13 21 -30 37 -24 23 -30 37 -30 72 0 42 15 58 26 28 8 -19 33 -19 40 0 4 9 1
29 -6 46 -14 32 -7 50 12 31 19 -19 28 -14 44 23 15 36 34 39 34 5z m-158
-921 l3 -231 33 -29 c38 -34 61 -32 102 7 l25 24 0 230 c0 147 4 230 10 230 6
0 19 -13 30 -29 30 -42 414 -500 457 -545 21 -21 38 -42 38 -46 0 -14 -199
-99 -291 -124 -139 -37 -255 -50 -404 -43 -186 9 -338 48 -520 133 -57 27 -59
28 -33 36 23 8 132 129 278 308 25 30 87 104 138 164 51 60 99 117 105 127 7
11 15 19 19 19 4 0 8 -104 10 -231z"/>
<path d="M845 2472 c-6 -5 -31 -16 -56 -26 -51 -18 -87 -50 -70 -61 6 -3 11
-17 11 -30 0 -37 61 -155 80 -155 9 0 25 6 36 14 17 13 18 17 5 48 -19 49 -25
78 -14 78 6 0 18 -20 27 -45 21 -53 27 -58 61 -49 31 8 32 28 4 106 -17 44
-28 60 -46 64 -22 6 -23 8 -8 23 8 10 15 23 15 29 0 14 -31 16 -45 4z m-19
-71 c-9 -10 -28 -18 -42 -17 -32 1 -31 14 4 22 15 3 32 7 37 9 18 6 18 5 1
-14z"/>
<path d="M690 2440 c-9 -6 -10 -10 -3 -10 6 0 15 5 18 10 8 12 4 12 -15 0z"/>
<path d="M1707 2418 c-24 -19 -49 -86 -41 -111 9 -32 34 -57 55 -57 10 0 33
-9 51 -20 18 -11 36 -20 39 -20 8 0 79 145 79 160 0 11 -23 24 -81 44 -54 19
-80 20 -102 4z m80 -74 c5 -17 -15 -37 -31 -31 -14 5 -15 11 -6 27 11 21 31
23 37 4z"/>
<path d="M582 2378 c-28 -18 -52 -36 -52 -40 0 -5 25 8 55 28 48 32 62 44 52
44 -1 0 -26 -15 -55 -32z"/>
<path d="M1906 2352 c-2 -4 -7 -44 -11 -90 -8 -88 0 -112 36 -112 28 0 160 91
157 107 -2 8 -15 22 -30 31 -26 15 -28 15 -51 -6 -32 -30 -36 -28 -30 16 5 34
2 39 -21 50 -31 14 -43 15 -50 4z"/>
<path d="M494 2312 c-10 -9 -34 -29 -52 -45 -19 -15 -30 -27 -25 -27 9 0 111
89 102 90 -3 0 -14 -8 -25 -18z"/>
<path d="M604 2291 c-17 -10 -36 -33 -43 -50 -12 -26 -11 -35 6 -63 41 -71
120 -77 169 -13 26 34 26 36 10 69 -20 42 -61 76 -90 76 -11 0 -35 -9 -52 -19z
m86 -96 c-7 -8 -17 -15 -22 -15 -6 0 -5 7 2 15 7 8 17 15 22 15 6 0 5 -7 -2
-15z"/>
<path d="M345 2173 c-64 -71 -127 -155 -155 -207 -31 -56 -13 -36 48 54 28 41
64 90 80 109 l29 34 44 -48 c101 -111 116 -125 125 -125 5 0 31 21 57 46 47
44 48 46 31 65 -21 23 -32 24 -55 3 -17 -15 -22 -12 -81 50 -35 37 -62 69 -59
71 2 3 0 5 -5 5 -5 -1 -31 -26 -59 -57z"/>
<path d="M2100 2223 c-31 -11 -70 -58 -76 -91 -6 -32 -3 -38 50 -88 31 -30 60
-54 64 -54 12 0 122 114 122 126 0 12 -42 54 -54 54 -4 0 -17 11 -29 24 -24
26 -53 37 -77 29z m50 -99 c0 -17 -24 -29 -40 -19 -8 5 -6 13 6 26 18 20 34
17 34 -7z"/>
<path d="M151 1902 c-6 -12 -11 -27 -11 -34 0 -7 7 0 15 16 9 16 13 31 11 33
-2 3 -9 -4 -15 -15z"/>
<path d="M121 1834 c0 -11 3 -14 6 -6 3 7 2 16 -1 19 -3 4 -6 -2 -5 -13z"/>
<path d="M101 1784 c0 -11 3 -14 6 -6 3 7 2 16 -1 19 -3 4 -6 -2 -5 -13z"/>
<path d="M82 1740 c0 -14 2 -19 5 -12 2 6 2 18 0 25 -3 6 -5 1 -5 -13z"/>
<path d="M62 1680 c0 -14 2 -19 5 -12 2 6 2 18 0 25 -3 6 -5 1 -5 -13z"/>
<path d="M42 1610 c0 -14 2 -19 5 -12 2 6 2 18 0 25 -3 6 -5 1 -5 -13z"/>
<path d="M27 1553 c-4 -3 -7 -20 -6 -37 l1 -31 8 35 c9 36 8 45 -3 33z"/>
</g>
</svg>
